<svg xmlns="http://www.w3.org/2000/svg" width="512" height="512" viewBox="0 0 512 512">
  <defs>
    <linearGradient id="wall" x1="0" y1="0" x2="1" y2="1">
      <stop offset="0" stop-color="#e8f1e9"/>
      <stop offset="1" stop-color="#f6d8be"/>
    </linearGradient>
    <linearGradient id="shirt" x1="0" y1="0" x2="0" y2="1">
      <stop offset="0" stop-color="#43816d"/>
      <stop offset="1" stop-color="#214b3e"/>
    </linearGradient>
  </defs>
  <rect width="512" height="512" fill="url(#wall)"/>
  <circle cx="74" cy="100" r="46" fill="#e9b476" opacity=".8"/>
  <circle cx="433" cy="383" r="62" fill="#a8bdad" opacity=".85"/>
  <path d="M45 512c9-111 78-168 211-168s202 57 211 168" fill="url(#shirt)"/>
  <path d="M185 337h142l20 58c-39 42-143 42-182 0z" fill="#d99b76"/>
  <path d="M132 208c0-99 48-153 124-153s124 54 124 153v69c0 93-56 144-124 144s-124-51-124-144z" fill="#202d2a"/>
  <path d="M160 208c0-69 39-112 96-112s96 43 96 112v55c0 78-42 119-96 119s-96-41-96-119z" fill="#edbb94"/>
  <path d="M151 207c8-92 43-140 112-140 62 0 100 40 108 119-30-8-56-26-76-54-30 35-76 57-144 61z" fill="#202d2a"/>
  <path d="M190 236c14-11 29-11 42 0" fill="none" stroke="#3d3029" stroke-width="7" stroke-linecap="round"/>
  <path d="M280 236c14-11 29-11 42 0" fill="none" stroke="#3d3029" stroke-width="7" stroke-linecap="round"/>
  <ellipse cx="212" cy="260" rx="6" ry="8" fill="#26312d"/>
  <ellipse cx="300" cy="260" rx="6" ry="8" fill="#26312d"/>
  <path d="M253 260c-4 17-11 29-9 35 3 5 10 7 18 4" fill="none" stroke="#c88768" stroke-width="5" stroke-linecap="round"/>
  <path d="M229 319c15 11 36 11 51 0" fill="none" stroke="#a34f4a" stroke-width="6" stroke-linecap="round"/>
  <path d="M180 392l-35 120h222l-35-120c-30 25-122 25-152 0z" fill="#f2f3ed"/>
  <path d="M256 382l-28 34 28 36 28-36z" fill="#b2c9bd"/>
</svg>
